<svg xmlns="http://www.w3.org/2000/svg" xmlns:xlink="http://www.w3.org/1999/xlink" width="1174" height="147" viewBox="0 0 1174 147"><defs><clipPath id="a"><rect width="1174" height="147" rx="16" fill="#545afa"/></clipPath><clipPath id="b"><path d="M16,0H654a0,0,0,0,1,0,0V395a0,0,0,0,1,0,0H16A16,16,0,0,1,0,379V16A16,16,0,0,1,16,0Z" fill="#ffda2b"/></clipPath><clipPath id="c"><path d="M16,0H654a0,0,0,0,1,0,0V395a0,0,0,0,1,0,0H16A16,16,0,0,1,0,379V16A16,16,0,0,1,16,0Z" transform="translate(0 0.325)" fill="#ffda2b"/></clipPath></defs><g transform="translate(-96 -4088)"><rect width="1174" height="147" rx="16" transform="translate(96 4088)" fill="#545afa"/><g transform="translate(96 4088)" clip-path="url(#a)"><g transform="translate(548 0)" clip-path="url(#b)"><g transform="translate(-46.716 263.981) rotate(-60)"><path d="M1.28,25.776c6.556-2.868,10.2,4.6,16.758,1.736S20.95,17.17,27.507,14.3s10.2,4.605,16.754,1.737S47.173,5.7,53.729,2.83" transform="translate(469.905 276.42)" fill="none" stroke="#fff" stroke-miterlimit="10" stroke-width="3"/><path d="M1.28,25.776c6.557-2.868,10.2,4.6,16.758,1.736S20.95,17.17,27.507,14.3s10.2,4.605,16.754,1.737S47.173,5.7,53.729,2.83" transform="translate(53.131 38.015)" fill="none" stroke="#fff" stroke-miterlimit="10" stroke-width="3"/><path d="M1.28,25.776c6.556-2.868,10.2,4.6,16.758,1.736s2.913-10.341,9.469-13.21,10.2,4.605,16.753,1.738S47.173,5.7,53.729,2.83" transform="translate(302.671 50.06)" fill="none" stroke="#fff" stroke-miterlimit="10" stroke-width="3"/><path d="M1.28,25.776c6.556-2.87,10.2,4.6,16.756,1.734s2.913-10.34,9.47-13.209,10.2,4.6,16.753,1.737S47.173,5.7,53.729,2.83" transform="translate(46.95 355.72)" fill="none" stroke="#fff" stroke-miterlimit="10" stroke-width="3"/><g transform="translate(245.648 39.434)"><line x2="14.316" y2="1.387" transform="translate(0.383 7.716)" fill="none" stroke="#fff" stroke-miterlimit="10" stroke-width="0.813"/><line x1="1.66" y1="16.111" transform="translate(6.711 0.353)" fill="none" stroke="#fff" stroke-miterlimit="10" stroke-width="0.813"/></g><g transform="translate(161.409 8.502)"><line x2="14.316" y2="1.387" transform="translate(0.383 7.716)" fill="none" stroke="#fff" stroke-miterlimit="10" stroke-width="0.813"/><line x1="1.66" y1="16.112" transform="translate(6.711 0.353)" fill="none" stroke="#fff" stroke-miterlimit="10" stroke-width="0.813"/></g><g transform="translate(90.191 396.709)"><line x2="14.316" y2="1.387" transform="translate(0.383 7.716)" fill="none" stroke="#fff" stroke-miterlimit="10" stroke-width="0.813"/><line x1="1.66" y1="16.111" transform="translate(6.711 0.353)" fill="none" stroke="#fff" stroke-miterlimit="10" stroke-width="0.813"/></g><g transform="translate(21.411 102.478)"><line x2="14.316" y2="1.387" transform="translate(0.383 7.716)" fill="none" stroke="#fff" stroke-miterlimit="10" stroke-width="0.813"/><line x1="1.66" y1="16.112" transform="translate(6.711 0.353)" fill="none" stroke="#fff" stroke-miterlimit="10" stroke-width="0.813"/></g><g transform="translate(356.633 413.397)"><line x2="14.316" y2="1.387" transform="translate(0.383 7.716)" fill="none" stroke="#fff" stroke-miterlimit="10" stroke-width="0.813"/><line x1="1.66" y1="16.112" transform="translate(6.711 0.353)" fill="none" stroke="#fff" stroke-miterlimit="10" stroke-width="0.813"/></g><g transform="translate(419.606 498.779)"><line x2="14.316" y2="1.387" transform="translate(0.383 7.716)" fill="none" stroke="#fff" stroke-miterlimit="10" stroke-width="0.813"/><line x1="1.66" y1="16.111" transform="translate(6.711 0.353)" fill="none" stroke="#fff" stroke-miterlimit="10" stroke-width="0.813"/></g><g transform="translate(141.152 472.246)"><line x2="14.316" y2="1.387" transform="translate(0.383 7.716)" fill="none" stroke="#fff" stroke-miterlimit="10" stroke-width="0.813"/><line x1="1.66" y1="16.111" transform="translate(6.711 0.353)" fill="none" stroke="#fff" stroke-miterlimit="10" stroke-width="0.813"/></g><g transform="translate(462.938 388.464)"><line x2="14.316" y2="1.387" transform="translate(0.383 7.716)" fill="none" stroke="#fff" stroke-miterlimit="10" stroke-width="0.813"/><line x1="1.66" y1="16.111" transform="translate(6.711 0.353)" fill="none" stroke="#fff" stroke-miterlimit="10" stroke-width="0.813"/></g><g transform="translate(305.914 258.792)"><line x2="14.316" y2="1.387" transform="translate(0.383 7.716)" fill="none" stroke="#fff" stroke-miterlimit="10" stroke-width="0.813"/><line x1="1.66" y1="16.111" transform="translate(6.711 0.353)" fill="none" stroke="#fff" stroke-miterlimit="10" stroke-width="0.813"/></g><g transform="translate(414.972 95.695)"><line x2="14.316" y2="1.387" transform="translate(0.383 7.716)" fill="none" stroke="#fff" stroke-miterlimit="10" stroke-width="0.81"/><line x1="1.66" y1="16.111" transform="translate(6.711 0.353)" fill="none" stroke="#fff" stroke-miterlimit="10" stroke-width="0.81"/></g><g transform="translate(406.849 290.087)"><line x2="14.316" y2="1.387" transform="translate(0.383 7.716)" fill="none" stroke="#fff" stroke-miterlimit="10" stroke-width="0.81"/><line x1="1.66" y1="16.111" transform="translate(6.711 0.353)" fill="none" stroke="#fff" stroke-miterlimit="10" stroke-width="0.81"/></g><g transform="translate(0.39 7.855)" opacity="0.7"><g transform="translate(133.953 52.895)"><g transform="translate(0 0)"><path d="M5.011,3.126A2.052,2.052,0,0,1,2.832,5.6a3.334,3.334,0,0,1-2.7-3A2.051,2.051,0,0,1,2.311.125,3.335,3.335,0,0,1,5.011,3.126Z" fill="#fff"/></g></g><g transform="translate(156.402 61.205)"><g transform="translate(0 0)"><path d="M5.012,3.126A2.053,2.053,0,0,1,2.833,5.606a3.337,3.337,0,0,1-2.7-3A2.052,2.052,0,0,1,2.312.125,3.336,3.336,0,0,1,5.012,3.126Z" fill="#fff"/></g></g><g transform="translate(279.638 14.729)"><g transform="translate(0 0)"><path d="M2.311.125a3.336,3.336,0,0,1,2.7,3,2.052,2.052,0,0,1-2.179,2.48,3.336,3.336,0,0,1-2.7-3A2.052,2.052,0,0,1,2.311.125Z" fill="#fff"/></g></g><g transform="translate(275.711 64.61)"><g transform="translate(0 0)"><path d="M2.311.125a3.336,3.336,0,0,1,2.7,3,2.052,2.052,0,0,1-2.179,2.48,3.336,3.336,0,0,1-2.7-3A2.052,2.052,0,0,1,2.311.125Z" fill="#fff"/></g></g><g transform="translate(382.953 59.601)"><g transform="translate(0 0)"><path d="M2.311.125a3.336,3.336,0,0,1,2.7,3,2.052,2.052,0,0,1-2.179,2.48,3.336,3.336,0,0,1-2.7-3A2.052,2.052,0,0,1,2.311.125Z" fill="#fff"/></g></g><g transform="translate(395.572 217.655)"><g transform="translate(0 0)"><path d="M2.311.125a3.336,3.336,0,0,1,2.7,3,2.052,2.052,0,0,1-2.179,2.48,3.336,3.336,0,0,1-2.7-3A2.052,2.052,0,0,1,2.311.125Z" fill="#fff"/></g></g><g transform="translate(467.104 123.317)"><g transform="translate(0 0)"><path d="M5.012,3.127A2.052,2.052,0,0,1,2.833,5.606a3.337,3.337,0,0,1-2.7-3A2.053,2.053,0,0,1,2.312.125,3.337,3.337,0,0,1,5.012,3.127Z" fill="#fff"/></g></g><g transform="translate(481.788 158.643)"><g transform="translate(0 0)"><path d="M5.011,3.127A2.052,2.052,0,0,1,2.832,5.606a3.335,3.335,0,0,1-2.7-3A2.052,2.052,0,0,1,2.311.125,3.336,3.336,0,0,1,5.011,3.127Z" fill="#fff"/></g></g><g transform="translate(482.735 321.76)"><g transform="translate(0 0)"><path d="M5.011,3.126A2.052,2.052,0,0,1,2.832,5.606a3.336,3.336,0,0,1-2.7-3A2.052,2.052,0,0,1,2.311.125,3.335,3.335,0,0,1,5.011,3.126Z" fill="#fff"/></g></g><g transform="translate(506.907 373.241)"><g transform="translate(0 0)"><path d="M5.011,3.126A2.053,2.053,0,0,1,2.832,5.606a3.336,3.336,0,0,1-2.7-3A2.052,2.052,0,0,1,2.311.125,3.337,3.337,0,0,1,5.011,3.126Z" fill="#fff"/></g></g><g transform="translate(426.885 424.215)"><g transform="translate(0 0)"><path d="M2.311.125a3.336,3.336,0,0,1,2.7,3,2.052,2.052,0,0,1-2.179,2.48,3.336,3.336,0,0,1-2.7-3A2.052,2.052,0,0,1,2.311.125Z" fill="#fff"/></g></g><g transform="translate(465.71 453.852)"><g transform="translate(0 0)"><path d="M2.311.125a3.336,3.336,0,0,1,2.7,3,2.052,2.052,0,0,1-2.179,2.48,3.336,3.336,0,0,1-2.7-3A2.052,2.052,0,0,1,2.311.125Z" fill="#fff"/></g></g><g transform="translate(379.697 466.066)"><g transform="translate(0 0)"><path d="M5.012,3.126A2.053,2.053,0,0,1,2.834,5.606a3.337,3.337,0,0,1-2.7-3A2.052,2.052,0,0,1,2.312.125,3.337,3.337,0,0,1,5.012,3.126Z" fill="#fff"/></g></g><g transform="translate(309.319 515.258)"><g transform="translate(0 0)"><path d="M5.012,3.127A2.052,2.052,0,0,1,2.833,5.606a3.336,3.336,0,0,1-2.7-3A2.053,2.053,0,0,1,2.312.125,3.337,3.337,0,0,1,5.012,3.127Z" fill="#fff"/></g></g><g transform="translate(147.202 394.023)"><g transform="translate(0 0)"><path d="M5.012,3.127a2.052,2.052,0,0,1-2.18,2.479,3.337,3.337,0,0,1-2.7-3A2.052,2.052,0,0,1,2.311.125,3.337,3.337,0,0,1,5.012,3.127Z" fill="#fff"/></g></g><g transform="translate(174.188 421.721)"><g transform="translate(0 0)"><path d="M5.011,3.127A2.052,2.052,0,0,1,2.832,5.606a3.335,3.335,0,0,1-2.7-3A2.052,2.052,0,0,1,2.311.125,3.336,3.336,0,0,1,5.011,3.127Z" fill="#fff"/></g></g><g transform="translate(86.409 448.845)"><g transform="translate(0 0)"><path d="M5.011,3.127A2.052,2.052,0,0,1,2.832,5.606a3.335,3.335,0,0,1-2.7-3A2.052,2.052,0,0,1,2.311.125,3.336,3.336,0,0,1,5.011,3.127Z" fill="#fff"/></g></g><g transform="translate(45.694 329.831)"><g transform="translate(0 0)"><path d="M5.011,3.125A2.052,2.052,0,0,1,2.832,5.6a3.335,3.335,0,0,1-2.7-3A2.051,2.051,0,0,1,2.311.125,3.334,3.334,0,0,1,5.011,3.125Z" fill="#fff"/></g></g><g transform="translate(11.539 232.392)"><g transform="translate(0 0)"><path d="M5.011,3.126A2.051,2.051,0,0,1,2.832,5.6a3.334,3.334,0,0,1-2.7-3A2.051,2.051,0,0,1,2.311.125,3.334,3.334,0,0,1,5.011,3.126Z" fill="#fff"/></g></g><g transform="translate(12.487 190.998)"><g transform="translate(0 0)"><path d="M2.311.125a3.336,3.336,0,0,1,2.7,3,2.052,2.052,0,0,1-2.179,2.48,3.336,3.336,0,0,1-2.7-3A2.052,2.052,0,0,1,2.311.125Z" fill="#fff"/></g></g><g transform="translate(34.086 4.859)"><g transform="translate(0 0)"><path d="M5.012,3.126A2.053,2.053,0,0,1,2.832,5.606a3.337,3.337,0,0,1-2.7-3A2.052,2.052,0,0,1,2.311.125,3.337,3.337,0,0,1,5.012,3.126Z" fill="#fff"/></g></g><g transform="translate(442.473 49.684)"><g transform="translate(0 0)"><path d="M5.012,3.126A2.053,2.053,0,0,1,2.833,5.606a3.337,3.337,0,0,1-2.7-3A2.052,2.052,0,0,1,2.312.125,3.336,3.336,0,0,1,5.012,3.126Z" fill="#fff"/></g></g></g></g></g><g transform="translate(-106 -21.325)" clip-path="url(#c)"><g transform="translate(-46.716 264.637) rotate(-60)"><path d="M1.28,25.776c6.556-2.868,10.2,4.6,16.758,1.736S20.95,17.17,27.507,14.3s10.2,4.605,16.754,1.737S47.173,5.7,53.729,2.83" transform="translate(469.905 276.42)" fill="none" stroke="#fff" stroke-miterlimit="10" stroke-width="3"/><path d="M1.28,25.776c6.557-2.868,10.2,4.6,16.758,1.736S20.95,17.17,27.507,14.3s10.2,4.605,16.754,1.737S47.173,5.7,53.729,2.83" transform="translate(53.131 38.015)" fill="none" stroke="#fff" stroke-miterlimit="10" stroke-width="3"/><path d="M1.28,25.776c6.556-2.868,10.2,4.6,16.758,1.736s2.913-10.341,9.469-13.21,10.2,4.605,16.753,1.738S47.173,5.7,53.729,2.83" transform="translate(302.671 50.06)" fill="none" stroke="#fff" stroke-miterlimit="10" stroke-width="3"/><path d="M1.28,25.776c6.556-2.87,10.2,4.6,16.756,1.734s2.913-10.34,9.47-13.209,10.2,4.6,16.753,1.737S47.173,5.7,53.729,2.83" transform="translate(46.95 355.72)" fill="none" stroke="#fff" stroke-miterlimit="10" stroke-width="3"/><g transform="translate(211.225 59.308)"><line x2="14.316" y2="1.387" transform="translate(0.383 7.716)" fill="none" stroke="#fff" stroke-miterlimit="10" stroke-width="0.813"/><line x1="1.66" y1="16.111" transform="translate(6.711 0.353)" fill="none" stroke="#fff" stroke-miterlimit="10" stroke-width="0.813"/></g><g transform="translate(161.409 8.502)"><line x2="14.316" y2="1.387" transform="translate(0.383 7.716)" fill="none" stroke="#fff" stroke-miterlimit="10" stroke-width="0.813"/><line x1="1.66" y1="16.112" transform="translate(6.711 0.353)" fill="none" stroke="#fff" stroke-miterlimit="10" stroke-width="0.813"/></g><g transform="translate(90.191 396.709)"><line x2="14.316" y2="1.387" transform="translate(0.383 7.716)" fill="none" stroke="#fff" stroke-miterlimit="10" stroke-width="0.813"/><line x1="1.66" y1="16.111" transform="translate(6.711 0.353)" fill="none" stroke="#fff" stroke-miterlimit="10" stroke-width="0.813"/></g><g transform="translate(21.411 102.478)"><line x2="14.316" y2="1.387" transform="translate(0.383 7.716)" fill="none" stroke="#fff" stroke-miterlimit="10" stroke-width="0.813"/><line x1="1.66" y1="16.112" transform="translate(6.711 0.353)" fill="none" stroke="#fff" stroke-miterlimit="10" stroke-width="0.813"/></g><g transform="translate(288.741 247.447)"><line x2="14.316" y2="1.387" transform="translate(0.383 7.716)" fill="none" stroke="#fff" stroke-miterlimit="10" stroke-width="0.813"/><line x1="1.66" y1="16.112" transform="translate(6.711 0.353)" fill="none" stroke="#fff" stroke-miterlimit="10" stroke-width="0.813"/></g><g transform="translate(364.353 415.21)"><line x2="14.316" y2="1.387" transform="translate(0.383 7.716)" fill="none" stroke="#fff" stroke-miterlimit="10" stroke-width="0.813"/><line x1="1.66" y1="16.111" transform="translate(6.711 0.353)" fill="none" stroke="#fff" stroke-miterlimit="10" stroke-width="0.813"/></g><g transform="translate(141.152 472.246)"><line x2="14.316" y2="1.387" transform="translate(0.383 7.716)" fill="none" stroke="#fff" stroke-miterlimit="10" stroke-width="0.813"/><line x1="1.66" y1="16.111" transform="translate(6.711 0.353)" fill="none" stroke="#fff" stroke-miterlimit="10" stroke-width="0.813"/></g><g transform="translate(501.707 423.816)"><line x2="14.316" y2="1.387" transform="translate(0.383 7.716)" fill="none" stroke="#fff" stroke-miterlimit="10" stroke-width="0.813"/><line x1="1.66" y1="16.111" transform="translate(6.711 0.353)" fill="none" stroke="#fff" stroke-miterlimit="10" stroke-width="0.813"/></g><g transform="translate(414.972 95.695)"><line x2="14.316" y2="1.387" transform="translate(0.383 7.716)" fill="none" stroke="#fff" stroke-miterlimit="10" stroke-width="0.81"/><line x1="1.66" y1="16.111" transform="translate(6.711 0.353)" fill="none" stroke="#fff" stroke-miterlimit="10" stroke-width="0.81"/></g><g transform="translate(406.849 290.087)"><line x2="14.316" y2="1.387" transform="translate(0.383 7.716)" fill="none" stroke="#fff" stroke-miterlimit="10" stroke-width="0.81"/><line x1="1.66" y1="16.111" transform="translate(6.711 0.353)" fill="none" stroke="#fff" stroke-miterlimit="10" stroke-width="0.81"/></g><g transform="translate(0.39 7.855)" opacity="0.7"><g transform="translate(133.953 52.895)"><g transform="translate(0 0)"><path d="M5.011,3.126A2.052,2.052,0,0,1,2.832,5.6a3.334,3.334,0,0,1-2.7-3A2.051,2.051,0,0,1,2.311.125,3.335,3.335,0,0,1,5.011,3.126Z" fill="#fff"/></g></g><g transform="translate(156.402 61.205)"><g transform="translate(0 0)"><path d="M5.012,3.126A2.053,2.053,0,0,1,2.833,5.606a3.337,3.337,0,0,1-2.7-3A2.052,2.052,0,0,1,2.312.125,3.336,3.336,0,0,1,5.012,3.126Z" fill="#fff"/></g></g><g transform="translate(279.638 14.729)"><g transform="translate(0 0)"><path d="M2.311.125a3.336,3.336,0,0,1,2.7,3,2.052,2.052,0,0,1-2.179,2.48,3.336,3.336,0,0,1-2.7-3A2.052,2.052,0,0,1,2.311.125Z" fill="#fff"/></g></g><g transform="translate(275.711 64.61)"><g transform="translate(0 0)"><path d="M2.311.125a3.336,3.336,0,0,1,2.7,3,2.052,2.052,0,0,1-2.179,2.48,3.336,3.336,0,0,1-2.7-3A2.052,2.052,0,0,1,2.311.125Z" fill="#fff"/></g></g><g transform="translate(382.953 59.601)"><g transform="translate(0 0)"><path d="M2.311.125a3.336,3.336,0,0,1,2.7,3,2.052,2.052,0,0,1-2.179,2.48,3.336,3.336,0,0,1-2.7-3A2.052,2.052,0,0,1,2.311.125Z" fill="#fff"/></g></g><g transform="translate(395.572 217.655)"><g transform="translate(0 0)"><path d="M2.311.125a3.336,3.336,0,0,1,2.7,3,2.052,2.052,0,0,1-2.179,2.48,3.336,3.336,0,0,1-2.7-3A2.052,2.052,0,0,1,2.311.125Z" fill="#fff"/></g></g><g transform="translate(467.104 123.317)"><g transform="translate(0 0)"><path d="M5.012,3.127A2.052,2.052,0,0,1,2.833,5.606a3.337,3.337,0,0,1-2.7-3A2.053,2.053,0,0,1,2.312.125,3.337,3.337,0,0,1,5.012,3.127Z" fill="#fff"/></g></g><g transform="translate(481.788 158.643)"><g transform="translate(0 0)"><path d="M5.011,3.127A2.052,2.052,0,0,1,2.832,5.606a3.335,3.335,0,0,1-2.7-3A2.052,2.052,0,0,1,2.311.125,3.336,3.336,0,0,1,5.011,3.127Z" fill="#fff"/></g></g><g transform="translate(482.735 321.76)"><g transform="translate(0 0)"><path d="M5.011,3.126A2.052,2.052,0,0,1,2.832,5.606a3.336,3.336,0,0,1-2.7-3A2.052,2.052,0,0,1,2.311.125,3.335,3.335,0,0,1,5.011,3.126Z" fill="#fff"/></g></g><g transform="translate(506.907 373.241)"><g transform="translate(0 0)"><path d="M5.011,3.126A2.053,2.053,0,0,1,2.832,5.606a3.336,3.336,0,0,1-2.7-3A2.052,2.052,0,0,1,2.311.125,3.337,3.337,0,0,1,5.011,3.126Z" fill="#fff"/></g></g><g transform="translate(426.885 424.215)"><g transform="translate(0 0)"><path d="M2.311.125a3.336,3.336,0,0,1,2.7,3,2.052,2.052,0,0,1-2.179,2.48,3.336,3.336,0,0,1-2.7-3A2.052,2.052,0,0,1,2.311.125Z" fill="#fff"/></g></g><g transform="translate(520.71 549.115)"><g transform="translate(0 0)"><path d="M2.311.125a3.336,3.336,0,0,1,2.7,3,2.052,2.052,0,0,1-2.179,2.48,3.336,3.336,0,0,1-2.7-3A2.052,2.052,0,0,1,2.311.125Z" fill="#fff"/></g></g><g transform="translate(379.697 466.066)"><g transform="translate(0 0)"><path d="M5.012,3.126A2.053,2.053,0,0,1,2.834,5.606a3.337,3.337,0,0,1-2.7-3A2.052,2.052,0,0,1,2.312.125,3.337,3.337,0,0,1,5.012,3.126Z" fill="#fff"/></g></g><g transform="translate(309.319 515.258)"><g transform="translate(0 0)"><path d="M5.012,3.127A2.052,2.052,0,0,1,2.833,5.606a3.336,3.336,0,0,1-2.7-3A2.053,2.053,0,0,1,2.312.125,3.337,3.337,0,0,1,5.012,3.127Z" fill="#fff"/></g></g><g transform="translate(147.202 394.023)"><g transform="translate(0 0)"><path d="M5.012,3.127a2.052,2.052,0,0,1-2.18,2.479,3.337,3.337,0,0,1-2.7-3A2.052,2.052,0,0,1,2.311.125,3.337,3.337,0,0,1,5.012,3.127Z" fill="#fff"/></g></g><g transform="translate(174.188 421.721)"><g transform="translate(0 0)"><path d="M5.011,3.127A2.052,2.052,0,0,1,2.832,5.606a3.335,3.335,0,0,1-2.7-3A2.052,2.052,0,0,1,2.311.125,3.336,3.336,0,0,1,5.011,3.127Z" fill="#fff"/></g></g><g transform="translate(86.409 448.845)"><g transform="translate(0 0)"><path d="M5.011,3.127A2.052,2.052,0,0,1,2.832,5.606a3.335,3.335,0,0,1-2.7-3A2.052,2.052,0,0,1,2.311.125,3.336,3.336,0,0,1,5.011,3.127Z" fill="#fff"/></g></g><g transform="translate(45.694 329.831)"><g transform="translate(0 0)"><path d="M5.011,3.125A2.052,2.052,0,0,1,2.832,5.6a3.335,3.335,0,0,1-2.7-3A2.051,2.051,0,0,1,2.311.125,3.334,3.334,0,0,1,5.011,3.125Z" fill="#fff"/></g></g><g transform="translate(11.539 232.392)"><g transform="translate(0 0)"><path d="M5.011,3.126A2.051,2.051,0,0,1,2.832,5.6a3.334,3.334,0,0,1-2.7-3A2.051,2.051,0,0,1,2.311.125,3.334,3.334,0,0,1,5.011,3.126Z" fill="#fff"/></g></g><g transform="translate(12.487 190.998)"><g transform="translate(0 0)"><path d="M2.311.125a3.336,3.336,0,0,1,2.7,3,2.052,2.052,0,0,1-2.179,2.48,3.336,3.336,0,0,1-2.7-3A2.052,2.052,0,0,1,2.311.125Z" fill="#fff"/></g></g><g transform="translate(34.086 4.859)"><g transform="translate(0 0)"><path d="M5.012,3.126A2.053,2.053,0,0,1,2.832,5.606a3.337,3.337,0,0,1-2.7-3A2.052,2.052,0,0,1,2.311.125,3.337,3.337,0,0,1,5.012,3.126Z" fill="#fff"/></g></g><g transform="translate(442.473 49.684)"><g transform="translate(0 0)"><path d="M5.012,3.126A2.053,2.053,0,0,1,2.833,5.606a3.337,3.337,0,0,1-2.7-3A2.052,2.052,0,0,1,2.312.125,3.336,3.336,0,0,1,5.012,3.126Z" fill="#fff"/></g></g></g></g></g></g></g></svg>