<svg xmlns="http://www.w3.org/2000/svg" xmlns:xlink="http://www.w3.org/1999/xlink" width="654" height="497" viewBox="0 0 654 497"><defs><clipPath id="a"><path d="M16,0H654a0,0,0,0,1,0,0V497a0,0,0,0,1,0,0H16A16,16,0,0,1,0,481V16A16,16,0,0,1,16,0Z" fill="#ffda2b"/></clipPath></defs><g transform="translate(-96 -4353)"><path d="M16,0H654V497H16A16,16,0,0,1,0,481V16A16,16,0,0,1,16,0Z" transform="translate(96 4353)" fill="#faaf19"/><g transform="translate(96 4353)" clip-path="url(#a)"><g transform="translate(-61.178 338.876) rotate(-60)"><path d="M0,30.284c8.145-3.785,11.659,3.762,19.805-.024s4.631-11.334,12.776-15.119,11.658,3.763,19.8-.022S57.013,3.785,65.157,0" transform="translate(541.309 248.126)" fill="none" stroke="#fff" stroke-miterlimit="10" stroke-width="3"/><path d="M0,30.284c8.146-3.785,11.659,3.762,19.805-.024s4.631-11.334,12.776-15.12,11.658,3.763,19.8-.022S57.013,3.785,65.158,0" transform="translate(70.54 40.894)" fill="none" stroke="#fff" stroke-miterlimit="10" stroke-width="3"/><path d="M0,30.284c8.145-3.785,11.659,3.762,19.805-.024s4.631-11.333,12.776-15.12,11.658,3.763,19.8-.021S57.013,3.785,65.157,0" transform="translate(367.006 25.847)" fill="none" stroke="#fff" stroke-miterlimit="10" stroke-width="3"/><path d="M0,30.284c8.145-3.785,11.659,3.762,19.805-.024s4.631-11.333,12.776-15.12,11.658,3.763,19.8-.021S57.013,3.785,65.158,0" transform="translate(297.576 550.828)" fill="none" stroke="#fff" stroke-miterlimit="10" stroke-width="3"/><path d="M0,30.284c8.145-3.787,11.659,3.762,19.8-.025s4.631-11.333,12.778-15.118,11.658,3.762,19.8-.022S57.013,3.785,65.158,0" transform="translate(27.681 379.776)" fill="none" stroke="#fff" stroke-miterlimit="10" stroke-width="3"/><g transform="translate(257.784 48.519)"><line y1="0.123" x2="16.93" transform="translate(0 8.421)" fill="none" stroke="#fff" stroke-miterlimit="10" stroke-width="0.813"/><line x1="0.181" y1="16.965" transform="translate(8.375 0)" fill="none" stroke="#fff" stroke-miterlimit="10" stroke-width="0.813"/></g><g transform="translate(204.006 0)"><line y1="0.123" x2="16.931" transform="translate(0 8.421)" fill="none" stroke="#fff" stroke-miterlimit="10" stroke-width="0.813"/><line x1="0.182" y1="16.965" transform="translate(8.375 0)" fill="none" stroke="#fff" stroke-miterlimit="10" stroke-width="0.813"/></g><g transform="translate(75.655 421.193)"><line y1="0.123" x2="16.93" transform="translate(0 8.421)" fill="none" stroke="#fff" stroke-miterlimit="10" stroke-width="0.813"/><line x1="0.182" y1="16.965" transform="translate(8.374 0)" fill="none" stroke="#fff" stroke-miterlimit="10" stroke-width="0.813"/></g><g transform="translate(26.431 115.671)"><line y1="0.123" x2="16.931" transform="translate(0 8.421)" fill="none" stroke="#fff" stroke-miterlimit="10" stroke-width="0.813"/><line x1="0.181" y1="16.965" transform="translate(8.375 0)" fill="none" stroke="#fff" stroke-miterlimit="10" stroke-width="0.813"/></g><g transform="translate(391.774 409.2)"><line y1="0.123" x2="16.93" transform="translate(0 8.421)" fill="none" stroke="#fff" stroke-miterlimit="10" stroke-width="0.813"/><line x1="0.181" y1="16.965" transform="translate(8.375 0)" fill="none" stroke="#fff" stroke-miterlimit="10" stroke-width="0.813"/></g><g transform="translate(457.393 493.055)"><line y1="0.123" x2="16.931" transform="translate(0 8.421)" fill="none" stroke="#fff" stroke-miterlimit="10" stroke-width="0.813"/><line x1="0.182" y1="16.965" transform="translate(8.374 0)" fill="none" stroke="#fff" stroke-miterlimit="10" stroke-width="0.813"/></g><g transform="translate(128.038 495.909)"><line y1="0.123" x2="16.931" transform="translate(0 8.421)" fill="none" stroke="#fff" stroke-miterlimit="10" stroke-width="0.813"/><line x1="0.181" y1="16.965" transform="translate(8.375 0)" fill="none" stroke="#fff" stroke-miterlimit="10" stroke-width="0.813"/></g><g transform="translate(521.427 370.787)"><line y1="0.123" x2="16.931" transform="translate(0 8.421)" fill="none" stroke="#fff" stroke-miterlimit="10" stroke-width="0.813"/><line x1="0.182" y1="16.965" transform="translate(8.374 0)" fill="none" stroke="#fff" stroke-miterlimit="10" stroke-width="0.813"/></g><g transform="translate(496.88 64.497)"><line y1="0.123" x2="16.93" transform="translate(0 8.421)" fill="none" stroke="#fff" stroke-miterlimit="10" stroke-width="0.81"/><line x1="0.181" y1="16.965" transform="translate(8.374 0)" fill="none" stroke="#fff" stroke-miterlimit="10" stroke-width="0.81"/></g><g transform="translate(465.475 272.33)"><line y1="0.123" x2="16.93" transform="translate(0 8.421)" fill="none" stroke="#fff" stroke-miterlimit="10" stroke-width="0.81"/><line x1="0.181" y1="16.965" transform="translate(8.374 0)" fill="none" stroke="#fff" stroke-miterlimit="10" stroke-width="0.81"/></g><g transform="translate(0 1.991)" opacity="0.7"><g transform="translate(166.141 56.898)"><g transform="translate(0 0)"><path d="M5.763,2.893A2.882,2.882,0,1,1,0,2.882a2.882,2.882,0,1,1,5.763.01Z" fill="#fff"/></g></g><g transform="translate(192.004 63.236)"><g transform="translate(0)"><path d="M5.765,2.893A2.882,2.882,0,1,1,0,2.883a2.882,2.882,0,1,1,5.765.01Z" fill="#fff"/></g></g><g transform="translate(344.269 0)"><g transform="translate(0)"><path d="M2.877,0a2.888,2.888,0,0,1,.01,5.776A2.888,2.888,0,0,1,2.877,0Z" fill="#fff"/></g></g><g transform="translate(334.012 53.536)"><g transform="translate(0 0)"><path d="M2.877,0a2.888,2.888,0,0,1,.01,5.776A2.888,2.888,0,0,1,2.877,0Z" fill="#fff"/></g></g><g transform="translate(462.559 36.227)"><g transform="translate(0 0)"><path d="M2.877,0a2.888,2.888,0,0,1,.01,5.776A2.888,2.888,0,0,1,2.877,0Z" fill="#fff"/></g></g><g transform="translate(459.967 203.063)"><g transform="translate(0)"><path d="M2.877,0a2.888,2.888,0,0,1,.01,5.776A2.888,2.888,0,0,1,2.877,0Z" fill="#fff"/></g></g><g transform="translate(555.872 94.654)"><g transform="translate(0 0)"><path d="M5.765,2.894A2.882,2.882,0,1,1,0,2.884a2.882,2.882,0,1,1,5.765.01Z" fill="#fff"/></g></g><g transform="translate(569.451 130.617)"><g transform="translate(0 0)"><path d="M5.764,2.894A2.882,2.882,0,1,1,0,2.884a2.882,2.882,0,1,1,5.763.01Z" fill="#fff"/></g></g><g transform="translate(552.364 304.147)"><g transform="translate(0 0)"><path d="M5.763,2.893A2.882,2.882,0,1,1,0,2.883a2.882,2.882,0,1,1,5.763.01Z" fill="#fff"/></g></g><g transform="translate(575.462 356.247)"><g transform="translate(0 0)"><path d="M5.763,2.893A2.882,2.882,0,1,1,0,2.883a2.882,2.882,0,1,1,5.763.01Z" fill="#fff"/></g></g><g transform="translate(474.268 419.445)"><g transform="translate(0 0)"><path d="M2.877,0a2.888,2.888,0,0,1,.01,5.776A2.888,2.888,0,0,1,2.877,0Z" fill="#fff"/></g></g><g transform="translate(517.293 446.657)"><g transform="translate(0 0)"><path d="M2.877,0a2.888,2.888,0,0,1,.01,5.776A2.888,2.888,0,0,1,2.877,0Z" fill="#fff"/></g></g><g transform="translate(413.278 469.265)"><g transform="translate(0 0)"><path d="M5.765,2.893A2.882,2.882,0,1,1,0,2.883a2.882,2.882,0,1,1,5.765.01Z" fill="#fff"/></g></g><g transform="translate(323.792 529.489)"><g transform="translate(0 0)"><path d="M5.765,2.894A2.882,2.882,0,1,1,0,2.884a2.882,2.882,0,1,1,5.765.01Z" fill="#fff"/></g></g><g transform="translate(143.855 418.542)"><g transform="translate(0 0)"><path d="M5.765,2.894A2.882,2.882,0,1,1,0,2.884a2.882,2.882,0,1,1,5.765.01Z" fill="#fff"/></g></g><g transform="translate(172.967 445.012)"><g transform="translate(0 0)"><path d="M5.763,2.894A2.882,2.882,0,1,1,0,2.884a2.882,2.882,0,1,1,5.763.01Z" fill="#fff"/></g></g><g transform="translate(65.179 483.688)"><g transform="translate(0 0)"><path d="M5.763,2.894A2.882,2.882,0,1,1,0,2.884a2.882,2.882,0,1,1,5.763.01Z" fill="#fff"/></g></g><g transform="translate(29.88 361.547)"><g transform="translate(0 0)"><path d="M5.763,2.892A2.882,2.882,0,1,1,0,2.882a2.882,2.882,0,1,1,5.763.01Z" fill="#fff"/></g></g><g transform="translate(0 261.64)"><g transform="translate(0 0)"><path d="M5.763,2.893A2.882,2.882,0,1,1,0,2.883a2.882,2.882,0,1,1,5.763.01Z" fill="#fff"/></g></g><g transform="translate(5.755 217.471)"><g transform="translate(0 0)"><path d="M2.877,0a2.888,2.888,0,0,1,.01,5.776A2.888,2.888,0,0,1,2.877,0Z" fill="#fff"/></g></g><g transform="translate(52.32 16.918)"><g transform="translate(0 0)"><path d="M5.765,2.893A2.882,2.882,0,1,1,0,2.883a2.882,2.882,0,1,1,5.765.01Z" fill="#fff"/></g></g><g transform="translate(534.7 19.023)"><g transform="translate(0 0)"><path d="M5.765,2.893A2.882,2.882,0,1,1,0,2.883a2.882,2.882,0,1,1,5.765.01Z" fill="#fff"/></g></g></g></g></g></g></svg>